<mxfile host="app.diagrams.net" modified="2020-10-21T09:35:04.902Z" agent="5.0 (Windows NT 10.0; Win64; x64) AppleWebKit/537.36 (KHTML, like Gecko) Chrome/86.0.4240.75 Safari/537.36" etag="kdcYHXbxmSdDo2phGxi7" version="13.8.1" type="github">
  <diagram id="C5RBs43oDa-KdzZeNtuy" name="Page-1">
    <mxGraphModel dx="1422" dy="738" grid="1" gridSize="10" guides="1" tooltips="1" connect="1" arrows="1" fold="1" page="1" pageScale="1" pageWidth="827" pageHeight="1169" math="0" shadow="0">
      <root>
        <mxCell id="WIyWlLk6GJQsqaUBKTNV-0" />
        <mxCell id="WIyWlLk6GJQsqaUBKTNV-1" parent="WIyWlLk6GJQsqaUBKTNV-0" />
        <mxCell id="WIyWlLk6GJQsqaUBKTNV-2" value="" style="rounded=0;html=1;jettySize=auto;orthogonalLoop=1;fontSize=11;endArrow=block;endFill=0;endSize=8;strokeWidth=1;shadow=0;labelBackgroundColor=none;edgeStyle=orthogonalEdgeStyle;exitX=0.5;exitY=1;exitDx=0;exitDy=0;" parent="WIyWlLk6GJQsqaUBKTNV-1" source="9qU9QseBTgCsktDfXD-7-59" edge="1">
          <mxGeometry relative="1" as="geometry">
            <mxPoint x="220" y="163" as="sourcePoint" />
            <mxPoint x="220" y="213" as="targetPoint" />
          </mxGeometry>
        </mxCell>
        <mxCell id="WIyWlLk6GJQsqaUBKTNV-4" value="上傳" style="rounded=0;html=1;jettySize=auto;orthogonalLoop=1;fontSize=11;endArrow=block;endFill=0;endSize=8;strokeWidth=1;shadow=0;labelBackgroundColor=none;edgeStyle=orthogonalEdgeStyle;exitX=0.5;exitY=1;exitDx=0;exitDy=0;entryX=0.5;entryY=0;entryDx=0;entryDy=0;" parent="WIyWlLk6GJQsqaUBKTNV-1" target="WIyWlLk6GJQsqaUBKTNV-10" edge="1">
          <mxGeometry y="20" relative="1" as="geometry">
            <mxPoint as="offset" />
            <mxPoint x="220" y="293" as="sourcePoint" />
            <mxPoint x="219" y="353" as="targetPoint" />
          </mxGeometry>
        </mxCell>
        <mxCell id="WIyWlLk6GJQsqaUBKTNV-9" value="Yes (放行)" style="edgeStyle=orthogonalEdgeStyle;rounded=0;html=1;jettySize=auto;orthogonalLoop=1;fontSize=11;endArrow=block;endFill=0;endSize=8;strokeWidth=1;shadow=0;labelBackgroundColor=none;entryX=0;entryY=0.5;entryDx=0;entryDy=0;" parent="WIyWlLk6GJQsqaUBKTNV-1" edge="1">
          <mxGeometry y="10" relative="1" as="geometry">
            <mxPoint as="offset" />
            <mxPoint x="268" y="393" as="sourcePoint" />
            <mxPoint x="340" y="393" as="targetPoint" />
          </mxGeometry>
        </mxCell>
        <mxCell id="WIyWlLk6GJQsqaUBKTNV-10" value="放行/退件" style="rhombus;whiteSpace=wrap;html=1;shadow=0;fontFamily=Helvetica;fontSize=12;align=center;strokeWidth=1;spacing=6;spacingTop=-4;" parent="WIyWlLk6GJQsqaUBKTNV-1" vertex="1">
          <mxGeometry x="170" y="353" width="100" height="80" as="geometry" />
        </mxCell>
        <mxCell id="9qU9QseBTgCsktDfXD-7-66" value="" style="edgeStyle=orthogonalEdgeStyle;rounded=0;orthogonalLoop=1;jettySize=auto;html=1;endArrow=block;endFill=0;" edge="1" parent="WIyWlLk6GJQsqaUBKTNV-1" target="9qU9QseBTgCsktDfXD-7-64">
          <mxGeometry relative="1" as="geometry">
            <mxPoint x="400" y="373" as="sourcePoint" />
          </mxGeometry>
        </mxCell>
        <mxCell id="9qU9QseBTgCsktDfXD-7-1" value="No (退件)" style="rounded=0;html=1;jettySize=auto;orthogonalLoop=1;fontSize=11;endArrow=block;endFill=0;endSize=8;strokeWidth=1;shadow=0;labelBackgroundColor=none;edgeStyle=orthogonalEdgeStyle;exitX=0.5;exitY=1;exitDx=0;exitDy=0;entryX=0.5;entryY=0;entryDx=0;entryDy=0;" edge="1" parent="WIyWlLk6GJQsqaUBKTNV-1" source="WIyWlLk6GJQsqaUBKTNV-10" target="9qU9QseBTgCsktDfXD-7-33">
          <mxGeometry y="40" relative="1" as="geometry">
            <mxPoint as="offset" />
            <mxPoint x="220" y="462" as="sourcePoint" />
            <mxPoint x="220" y="502" as="targetPoint" />
          </mxGeometry>
        </mxCell>
        <mxCell id="9qU9QseBTgCsktDfXD-7-3" value="暫存" style="text;html=1;strokeColor=none;fillColor=none;align=center;verticalAlign=middle;whiteSpace=wrap;rounded=0;" vertex="1" parent="WIyWlLk6GJQsqaUBKTNV-1">
          <mxGeometry x="220" y="157" width="40" height="20" as="geometry" />
        </mxCell>
        <mxCell id="9qU9QseBTgCsktDfXD-7-14" value="主管至後台操作" style="text;html=1;strokeColor=none;fillColor=none;align=center;verticalAlign=middle;whiteSpace=wrap;rounded=0;" vertex="1" parent="WIyWlLk6GJQsqaUBKTNV-1">
          <mxGeometry x="101" y="353" width="100" height="30" as="geometry" />
        </mxCell>
        <mxCell id="9qU9QseBTgCsktDfXD-7-16" value="未放行資料保留45天" style="text;html=1;strokeColor=none;fillColor=none;align=center;verticalAlign=middle;whiteSpace=wrap;rounded=0;" vertex="1" parent="WIyWlLk6GJQsqaUBKTNV-1">
          <mxGeometry x="101" y="393" width="70" height="20" as="geometry" />
        </mxCell>
        <mxCell id="9qU9QseBTgCsktDfXD-7-17" value="" style="endArrow=block;html=1;exitX=0.5;exitY=1;exitDx=0;exitDy=0;endFill=0;" edge="1" parent="WIyWlLk6GJQsqaUBKTNV-1">
          <mxGeometry width="50" height="50" relative="1" as="geometry">
            <mxPoint x="530" y="333" as="sourcePoint" />
            <mxPoint x="530" y="393" as="targetPoint" />
          </mxGeometry>
        </mxCell>
        <mxCell id="9qU9QseBTgCsktDfXD-7-18" value="符合" style="rhombus;whiteSpace=wrap;html=1;" vertex="1" parent="WIyWlLk6GJQsqaUBKTNV-1">
          <mxGeometry x="490" y="393" width="80" height="80" as="geometry" />
        </mxCell>
        <mxCell id="9qU9QseBTgCsktDfXD-7-21" value="" style="endArrow=block;html=1;exitX=0.5;exitY=1;exitDx=0;exitDy=0;endFill=0;entryX=0.5;entryY=0;entryDx=0;entryDy=0;" edge="1" parent="WIyWlLk6GJQsqaUBKTNV-1" target="9qU9QseBTgCsktDfXD-7-38">
          <mxGeometry relative="1" as="geometry">
            <mxPoint x="530" y="472" as="sourcePoint" />
            <mxPoint x="530" y="530" as="targetPoint" />
          </mxGeometry>
        </mxCell>
        <mxCell id="9qU9QseBTgCsktDfXD-7-22" value="Yes" style="edgeLabel;resizable=0;html=1;align=center;verticalAlign=middle;" connectable="0" vertex="1" parent="9qU9QseBTgCsktDfXD-7-21">
          <mxGeometry relative="1" as="geometry" />
        </mxCell>
        <mxCell id="9qU9QseBTgCsktDfXD-7-23" value="" style="endArrow=block;html=1;exitX=0;exitY=0.5;exitDx=0;exitDy=0;endFill=0;entryX=0.5;entryY=0;entryDx=0;entryDy=0;" edge="1" parent="WIyWlLk6GJQsqaUBKTNV-1" source="9qU9QseBTgCsktDfXD-7-18" target="9qU9QseBTgCsktDfXD-7-56">
          <mxGeometry relative="1" as="geometry">
            <mxPoint x="535" y="450" as="sourcePoint" />
            <mxPoint x="400" y="460" as="targetPoint" />
            <Array as="points">
              <mxPoint x="460" y="433" />
              <mxPoint x="430" y="450" />
              <mxPoint x="400" y="470" />
            </Array>
          </mxGeometry>
        </mxCell>
        <mxCell id="9qU9QseBTgCsktDfXD-7-24" value="No" style="edgeLabel;resizable=0;html=1;align=center;verticalAlign=middle;" connectable="0" vertex="1" parent="9qU9QseBTgCsktDfXD-7-23">
          <mxGeometry relative="1" as="geometry" />
        </mxCell>
        <mxCell id="9qU9QseBTgCsktDfXD-7-31" value="資料保留45天" style="text;html=1;strokeColor=none;fillColor=none;align=center;verticalAlign=middle;whiteSpace=wrap;rounded=0;" vertex="1" parent="WIyWlLk6GJQsqaUBKTNV-1">
          <mxGeometry x="102" y="588" width="90" height="20" as="geometry" />
        </mxCell>
        <mxCell id="9qU9QseBTgCsktDfXD-7-33" value="退件" style="rounded=1;whiteSpace=wrap;html=1;fontSize=12;glass=0;strokeWidth=1;shadow=0;" vertex="1" parent="WIyWlLk6GJQsqaUBKTNV-1">
          <mxGeometry x="160" y="543" width="120" height="40" as="geometry" />
        </mxCell>
        <mxCell id="9qU9QseBTgCsktDfXD-7-34" value="主管至後台操作?????" style="text;html=1;fillColor=#f8cecc;align=center;verticalAlign=middle;whiteSpace=wrap;rounded=0;" vertex="1" parent="WIyWlLk6GJQsqaUBKTNV-1">
          <mxGeometry x="290" y="500" width="70" height="20" as="geometry" />
        </mxCell>
        <mxCell id="9qU9QseBTgCsktDfXD-7-36" value="&lt;span&gt;WMB&lt;/span&gt;&lt;br&gt;&lt;span&gt;Database&lt;/span&gt;" style="shape=cylinder3;whiteSpace=wrap;html=1;boundedLbl=1;backgroundOutline=1;size=15;" vertex="1" parent="WIyWlLk6GJQsqaUBKTNV-1">
          <mxGeometry x="190" y="213" width="60" height="80" as="geometry" />
        </mxCell>
        <mxCell id="9qU9QseBTgCsktDfXD-7-38" value="已結案" style="rounded=1;whiteSpace=wrap;html=1;" vertex="1" parent="WIyWlLk6GJQsqaUBKTNV-1">
          <mxGeometry x="470" y="533" width="120" height="60" as="geometry" />
        </mxCell>
        <mxCell id="9qU9QseBTgCsktDfXD-7-39" value="外務" style="shape=umlActor;verticalLabelPosition=bottom;verticalAlign=top;html=1;outlineConnect=0;" vertex="1" parent="WIyWlLk6GJQsqaUBKTNV-1">
          <mxGeometry x="370" y="10" width="30" height="60" as="geometry" />
        </mxCell>
        <mxCell id="9qU9QseBTgCsktDfXD-7-47" value="" style="edgeStyle=orthogonalEdgeStyle;rounded=0;orthogonalLoop=1;jettySize=auto;html=1;endArrow=block;endFill=0;" edge="1" parent="WIyWlLk6GJQsqaUBKTNV-1" target="9qU9QseBTgCsktDfXD-7-46">
          <mxGeometry relative="1" as="geometry">
            <mxPoint x="530" y="127" as="sourcePoint" />
          </mxGeometry>
        </mxCell>
        <mxCell id="9qU9QseBTgCsktDfXD-7-48" value="" style="edgeStyle=orthogonalEdgeStyle;rounded=0;orthogonalLoop=1;jettySize=auto;html=1;endArrow=block;endFill=0;" edge="1" parent="WIyWlLk6GJQsqaUBKTNV-1" source="9qU9QseBTgCsktDfXD-7-46">
          <mxGeometry relative="1" as="geometry">
            <mxPoint x="530" y="273" as="targetPoint" />
          </mxGeometry>
        </mxCell>
        <mxCell id="9qU9QseBTgCsktDfXD-7-51" value="" style="edgeStyle=orthogonalEdgeStyle;rounded=0;orthogonalLoop=1;jettySize=auto;html=1;endArrow=block;endFill=0;" edge="1" parent="WIyWlLk6GJQsqaUBKTNV-1" source="9qU9QseBTgCsktDfXD-7-46">
          <mxGeometry relative="1" as="geometry">
            <mxPoint x="630" y="197" as="targetPoint" />
          </mxGeometry>
        </mxCell>
        <mxCell id="9qU9QseBTgCsktDfXD-7-72" style="edgeStyle=orthogonalEdgeStyle;rounded=0;orthogonalLoop=1;jettySize=auto;html=1;exitX=0.5;exitY=1;exitDx=0;exitDy=0;entryX=0.5;entryY=0;entryDx=0;entryDy=0;endArrow=block;endFill=0;" edge="1" parent="WIyWlLk6GJQsqaUBKTNV-1" source="9qU9QseBTgCsktDfXD-7-46" target="9qU9QseBTgCsktDfXD-7-71">
          <mxGeometry relative="1" as="geometry">
            <Array as="points">
              <mxPoint x="530" y="250" />
              <mxPoint x="624" y="250" />
            </Array>
          </mxGeometry>
        </mxCell>
        <mxCell id="9qU9QseBTgCsktDfXD-7-46" value="資料審核&lt;br&gt;成功" style="rhombus;whiteSpace=wrap;html=1;" vertex="1" parent="WIyWlLk6GJQsqaUBKTNV-1">
          <mxGeometry x="490" y="157" width="80" height="80" as="geometry" />
        </mxCell>
        <mxCell id="9qU9QseBTgCsktDfXD-7-49" value="Yes" style="text;html=1;align=center;verticalAlign=middle;resizable=0;points=[];autosize=1;" vertex="1" parent="WIyWlLk6GJQsqaUBKTNV-1">
          <mxGeometry x="524" y="233" width="40" height="20" as="geometry" />
        </mxCell>
        <mxCell id="9qU9QseBTgCsktDfXD-7-54" value="No" style="text;html=1;align=center;verticalAlign=middle;resizable=0;points=[];autosize=1;" vertex="1" parent="WIyWlLk6GJQsqaUBKTNV-1">
          <mxGeometry x="585" y="180" width="30" height="20" as="geometry" />
        </mxCell>
        <mxCell id="9qU9QseBTgCsktDfXD-7-56" value="已結案" style="rounded=1;whiteSpace=wrap;html=1;" vertex="1" parent="WIyWlLk6GJQsqaUBKTNV-1">
          <mxGeometry x="333" y="533" width="120" height="60" as="geometry" />
        </mxCell>
        <mxCell id="9qU9QseBTgCsktDfXD-7-57" style="edgeStyle=orthogonalEdgeStyle;rounded=0;orthogonalLoop=1;jettySize=auto;html=1;exitX=0.5;exitY=1;exitDx=0;exitDy=0;endArrow=block;endFill=0;" edge="1" parent="WIyWlLk6GJQsqaUBKTNV-1" source="9qU9QseBTgCsktDfXD-7-34" target="9qU9QseBTgCsktDfXD-7-34">
          <mxGeometry relative="1" as="geometry" />
        </mxCell>
        <mxCell id="9qU9QseBTgCsktDfXD-7-58" value="" style="endArrow=none;dashed=1;html=1;dashPattern=1 3;strokeWidth=2;" edge="1" parent="WIyWlLk6GJQsqaUBKTNV-1">
          <mxGeometry width="50" height="50" relative="1" as="geometry">
            <mxPoint x="400" y="480" as="sourcePoint" />
            <mxPoint x="220" y="510" as="targetPoint" />
          </mxGeometry>
        </mxCell>
        <mxCell id="9qU9QseBTgCsktDfXD-7-59" value="APP" style="rounded=1;whiteSpace=wrap;html=1;" vertex="1" parent="WIyWlLk6GJQsqaUBKTNV-1">
          <mxGeometry x="160" y="70" width="120" height="60" as="geometry" />
        </mxCell>
        <mxCell id="9qU9QseBTgCsktDfXD-7-60" value="端末系統" style="rounded=1;whiteSpace=wrap;html=1;" vertex="1" parent="WIyWlLk6GJQsqaUBKTNV-1">
          <mxGeometry x="470" y="70" width="120" height="60" as="geometry" />
        </mxCell>
        <mxCell id="9qU9QseBTgCsktDfXD-7-64" value="FTP" style="shape=cylinder3;whiteSpace=wrap;html=1;boundedLbl=1;backgroundOutline=1;size=15;" vertex="1" parent="WIyWlLk6GJQsqaUBKTNV-1">
          <mxGeometry x="370" y="263" width="60" height="80" as="geometry" />
        </mxCell>
        <mxCell id="9qU9QseBTgCsktDfXD-7-65" value="" style="endArrow=none;dashed=1;html=1;exitX=1;exitY=0.5;exitDx=0;exitDy=0;exitPerimeter=0;entryX=0;entryY=0.425;entryDx=0;entryDy=0;entryPerimeter=0;" edge="1" parent="WIyWlLk6GJQsqaUBKTNV-1" source="9qU9QseBTgCsktDfXD-7-64" target="9qU9QseBTgCsktDfXD-7-70">
          <mxGeometry width="50" height="50" relative="1" as="geometry">
            <mxPoint x="480" y="340" as="sourcePoint" />
            <mxPoint x="470" y="303" as="targetPoint" />
          </mxGeometry>
        </mxCell>
        <mxCell id="9qU9QseBTgCsktDfXD-7-67" value="已放行證件" style="rounded=0;whiteSpace=wrap;html=1;" vertex="1" parent="WIyWlLk6GJQsqaUBKTNV-1">
          <mxGeometry x="340" y="371.5" width="120" height="43" as="geometry" />
        </mxCell>
        <mxCell id="9qU9QseBTgCsktDfXD-7-69" value="已結案" style="rounded=1;whiteSpace=wrap;html=1;" vertex="1" parent="WIyWlLk6GJQsqaUBKTNV-1">
          <mxGeometry x="630" y="167" width="120" height="60" as="geometry" />
        </mxCell>
        <mxCell id="9qU9QseBTgCsktDfXD-7-70" value="&lt;span&gt;向WMB&lt;br&gt;取得影像&lt;/span&gt;" style="ellipse;whiteSpace=wrap;html=1;aspect=fixed;" vertex="1" parent="WIyWlLk6GJQsqaUBKTNV-1">
          <mxGeometry x="497" y="273" width="67" height="67" as="geometry" />
        </mxCell>
        <mxCell id="9qU9QseBTgCsktDfXD-7-71" value="紙本件" style="ellipse;whiteSpace=wrap;html=1;aspect=fixed;" vertex="1" parent="WIyWlLk6GJQsqaUBKTNV-1">
          <mxGeometry x="590" y="273" width="67" height="67" as="geometry" />
        </mxCell>
        <mxCell id="9qU9QseBTgCsktDfXD-7-74" value="取得流水號" style="text;html=1;strokeColor=none;fillColor=none;align=center;verticalAlign=middle;whiteSpace=wrap;rounded=0;" vertex="1" parent="WIyWlLk6GJQsqaUBKTNV-1">
          <mxGeometry x="233" y="328" width="70" height="20" as="geometry" />
        </mxCell>
        <mxCell id="9qU9QseBTgCsktDfXD-7-27" value="jpeg" style="text;html=1;strokeColor=none;fillColor=none;align=center;verticalAlign=middle;whiteSpace=wrap;rounded=0;" vertex="1" parent="WIyWlLk6GJQsqaUBKTNV-1">
          <mxGeometry x="365" y="290" width="40" height="20" as="geometry" />
        </mxCell>
        <mxCell id="9qU9QseBTgCsktDfXD-7-77" value="通知" style="text;html=1;strokeColor=none;fillColor=none;align=center;verticalAlign=middle;whiteSpace=wrap;rounded=0;" vertex="1" parent="WIyWlLk6GJQsqaUBKTNV-1">
          <mxGeometry x="293" y="147" width="40" height="20" as="geometry" />
        </mxCell>
        <mxCell id="9qU9QseBTgCsktDfXD-7-79" value="保留5年?" style="text;html=1;fillColor=#f8cecc;align=center;verticalAlign=middle;whiteSpace=wrap;rounded=0;" vertex="1" parent="WIyWlLk6GJQsqaUBKTNV-1">
          <mxGeometry x="325" y="418" width="80" height="20" as="geometry" />
        </mxCell>
        <mxCell id="9qU9QseBTgCsktDfXD-7-80" value="" style="endArrow=classic;html=1;entryX=0;entryY=0.5;entryDx=0;entryDy=0;" edge="1" parent="WIyWlLk6GJQsqaUBKTNV-1" target="9qU9QseBTgCsktDfXD-7-60">
          <mxGeometry width="50" height="50" relative="1" as="geometry">
            <mxPoint x="360" y="370" as="sourcePoint" />
            <mxPoint x="530" y="160" as="targetPoint" />
            <Array as="points">
              <mxPoint x="330" y="140" />
            </Array>
          </mxGeometry>
        </mxCell>
      </root>
    </mxGraphModel>
  </diagram>
</mxfile>
